<?xml version="1.0" encoding="iso-8859-1"?>
<!-- Generator: Adobe Illustrator 18.0.0, SVG Export Plug-In . SVG Version: 6.00 Build 0)  -->
<!DOCTYPE svg PUBLIC "-//W3C//DTD SVG 1.1//EN" "http://www.w3.org/Graphics/SVG/1.1/DTD/svg11.dtd">
<svg version="1.1" id="Capa_1" xmlns="http://www.w3.org/2000/svg" xmlns:xlink="http://www.w3.org/1999/xlink" x="0px" y="0px"
	 viewBox="0 0 471.107 471.107" style="enable-background:new 0 0 471.107 471.107;" xml:space="preserve">
<g>
	<path d="M467.357,167.128l-76.773-44.319c7.37-10.79,17.13-19.997,28.782-26.719c2.321-1.339,3.752-3.815,3.752-6.495
		c0-2.68-1.429-5.156-3.75-6.496l-72.017-41.579c-2.296-1.325-5.119-1.341-7.427-0.042c-0.024,0.014-0.072,0.041-0.097,0.055
		c-13.955,8.057-25.598,19.157-34.283,32.179l-6.229-3.599c-2.321-1.341-5.18-1.342-7.503-0.001l-95.996,55.435
		c-0.412,0.238-0.8,0.514-1.16,0.826L2.612,292.711l0.01,0.011c-1.625,1.408-2.599,3.456-2.6,5.652L0,326.081
		c-0.002,2.682,1.428,5.161,3.75,6.501l168.062,97.007c1.16,0.669,2.455,1.004,3.75,1.004c1.296,0,2.592-0.335,3.753-1.006
		l288.043-166.305c2.32-1.34,3.75-3.815,3.75-6.495v-83.164C471.107,170.944,469.678,168.468,467.357,167.128z M291.839,137.64
		l72.011,41.605c1.161,0.67,2.456,1.006,3.752,1.006c1.295,0,2.59-0.335,3.75-1.005c2.321-1.34,3.751-3.816,3.75-6.497
		c-0.001-4.48,0.352-8.915,1.018-13.275l24.502,14.148l-33.01,19.058L262.576,132.04l26.544-15.331
		c-0.674,4.749-1.029,9.57-1.029,14.437C288.091,133.825,289.52,136.301,291.839,137.64z M343.702,56.732l57.682,33.303
		c-22.406,16.882-37.095,42.319-40.516,70.164l-57.674-33.322C304.579,98.398,319.758,72.13,343.702,56.732z M295.564,85.268
		l2.589,1.496c-1.587,3.335-3.001,6.754-4.227,10.249c-0.723,0.164-1.43,0.425-2.091,0.806l-48.009,27.729
		c-2.32,1.34-3.749,3.816-3.749,6.495c0,2.68,1.43,5.155,3.75,6.495l120.033,69.299c1.16,0.67,2.455,1.005,3.75,1.005
		s2.59-0.335,3.75-1.005l48.009-27.718c2.32-1.34,3.75-3.815,3.75-6.495c0-2.679-1.43-5.155-3.75-6.495l-39.545-22.835
		c0.978-2.871,2.104-5.684,3.367-8.432l65.425,37.768l-81.008,46.788L214.57,132.04L295.564,85.268z M200.445,141.204l154.289,89.1
		L174.668,386.221l-154.273-89.07L200.445,141.204z M15.003,321.758l0.008-10.394l153.033,88.354l0.008,10.381L15.003,321.758z
		 M183.052,410.109l-0.008-11.299l188.934-163.594l84.13-48.591v65.832L183.052,410.109z"/>
	<path d="M162.073,202.232l120.283,69.445c1.168,0.674,2.461,1.005,3.748,1.005c1.764,0,3.515-0.621,4.911-1.83l36.775-31.843
		c1.835-1.588,2.787-3.966,2.557-6.381c-0.229-2.415-1.614-4.57-3.715-5.783l-120.279-69.459c-2.768-1.599-6.245-1.268-8.661,0.826
		l-36.78,31.857c-1.834,1.588-2.786,3.966-2.556,6.381C158.587,198.864,159.972,201.019,162.073,202.232z M203.478,173.045
		l106.53,61.521l-24.774,21.452l-106.537-61.509L203.478,173.045z"/>
	<path d="M44.779,294.825c0.23,2.415,1.615,4.57,3.716,5.783l120.262,69.433c1.168,0.674,2.461,1.005,3.749,1.005
		c1.763,0,3.514-0.621,4.911-1.83l94.397-81.737c1.835-1.588,2.787-3.966,2.557-6.381c-0.229-2.415-1.614-4.57-3.715-5.784
		l-120.271-69.452c-2.769-1.598-6.244-1.267-8.661,0.826l-94.388,81.755C45.501,290.032,44.549,292.41,44.779,294.825z
		 M147.507,221.523l106.523,61.513l-82.397,71.346L65.118,292.885L147.507,221.523z"/>
</g>
<g>
</g>
<g>
</g>
<g>
</g>
<g>
</g>
<g>
</g>
<g>
</g>
<g>
</g>
<g>
</g>
<g>
</g>
<g>
</g>
<g>
</g>
<g>
</g>
<g>
</g>
<g>
</g>
<g>
</g>
</svg>
