<?xml version="1.0"?>
<svg xmlns="http://www.w3.org/2000/svg" xmlns:xlink="http://www.w3.org/1999/xlink" version="1.1" id="Capa_1" x="0px" y="0px" viewBox="0 0 220.204 220.204" style="enable-background:new 0 0 220.204 220.204;" xml:space="preserve" width="512px" height="512px"><g transform="matrix(0.922745 0 0 0.922745 8.50596 8.50596)"><path d="M193.73,26.514C176.162,8.947,156.917,0.04,136.528,0.04c-24.693,0-50.468,13.254-76.606,39.394  c-15.681,15.68-25.295,38.076-26.379,61.445c-0.689,14.876,2.049,28.915,7.839,41.226l-39.01,36.553  c-1.482,1.389-2.338,3.32-2.371,5.35c-0.033,2.031,0.76,3.989,2.195,5.425l28.533,28.534c1.408,1.408,3.316,2.197,5.304,2.197  c0.04,0,0.081,0,0.122-0.001c2.031-0.033,3.962-0.889,5.351-2.371l36.549-39.006c11.116,5.232,23.666,8.014,36.921,8.015  c0.004,0,0.004,0,0.007,0c25.006,0,49.001-9.651,65.829-26.479c25.409-25.41,38.652-50.493,39.361-74.553  C220.797,64.621,211.9,44.684,193.73,26.514z M67.121,153.122c-3.914-3.914-7.238-8.327-9.959-13.133  c-0.059-0.105-0.119-0.208-0.183-0.311c-5.123-9.171-8.018-19.778-8.467-31.177l63.229,63.228  C94.218,171.011,78.471,164.471,67.121,153.122z M35.858,201.882l-17.576-17.577l30.975-29.024c2.208,2.973,4.614,5.805,7.257,8.447  c2.609,2.609,5.408,4.999,8.358,7.189L35.858,201.882z M205.18,85.327c-0.593,20.11-12.36,41.773-34.975,64.389  c-10.167,10.165-24.019,17.304-38.884,20.38l-81.19-81.19c3.058-14.914,10.172-28.642,20.398-38.866  c23.224-23.225,45.43-35.001,66-35.001c16.266,0,31.942,7.429,46.594,22.081C198.256,52.254,205.677,68.472,205.18,85.327z" data-original="#000000" class="active-path" fill="#000000"/></g> </svg>
