<?xml version="1.0" encoding="iso-8859-1"?>
<!-- Generator: Adobe Illustrator 16.0.0, SVG Export Plug-In . SVG Version: 6.00 Build 0)  -->
<!DOCTYPE svg PUBLIC "-//W3C//DTD SVG 1.1//EN" "http://www.w3.org/Graphics/SVG/1.1/DTD/svg11.dtd">
<svg version="1.1" id="Capa_1" xmlns="http://www.w3.org/2000/svg" xmlns:xlink="http://www.w3.org/1999/xlink" x="0px" y="0px"
	 width="631.742px" height="631.742px" viewBox="0 0 631.742 631.742" style="enable-background:new 0 0 631.742 631.742;"
	 xml:space="preserve">
<g>
	<g id="Off">
		<g>
			<path d="M489.738,74.368c-5.034-3.495-10.779-5.192-16.484-5.251c-9.516-0.119-18.913,4.343-24.717,12.733
				c-9.318,13.464-5.962,31.903,7.482,41.221c66.767,46.236,106.626,122.005,106.626,202.671
				c0,136.081-110.693,246.774-246.774,246.774S69.097,461.823,69.097,325.742c0-80.666,39.859-156.435,106.626-202.69
				c13.464-9.299,16.8-27.757,7.482-41.221c-5.922-8.548-15.557-13.01-25.25-12.694c-5.528,0.158-11.076,1.856-15.952,5.232
				C59.266,131.679,9.871,225.65,9.871,325.742c0,168.734,137.266,306,306,306s306-137.266,306-306
				C621.871,225.65,572.477,131.679,489.738,74.368z M315.871,236.903c16.366,0,29.613-13.267,29.613-29.613V29.613
				C345.484,13.267,332.237,0,315.871,0s-29.613,13.267-29.613,29.613v177.677C286.258,223.637,299.505,236.903,315.871,236.903z"/>
		</g>
	</g>
</g>
<g>
</g>
<g>
</g>
<g>
</g>
<g>
</g>
<g>
</g>
<g>
</g>
<g>
</g>
<g>
</g>
<g>
</g>
<g>
</g>
<g>
</g>
<g>
</g>
<g>
</g>
<g>
</g>
<g>
</g>
</svg>
