<?xml version="1.0" encoding="iso-8859-1"?>
<!-- Generator: Adobe Illustrator 19.1.0, SVG Export Plug-In . SVG Version: 6.00 Build 0)  -->
<svg xmlns="http://www.w3.org/2000/svg" xmlns:xlink="http://www.w3.org/1999/xlink" version="1.1" id="Capa_1" x="0px" y="0px" viewBox="0 0 513.32 513.32" style="enable-background:new 0 0 513.32 513.32;" xml:space="preserve" width="512px" height="512px">
<g>
	<g>
		<g>
			<polygon points="21.388,427.767 363.602,427.767 363.602,470.543 21.388,470.543 21.388,513.32 406.378,513.32 406.378,384.99      21.388,384.99    " fill="#444444"/>
			<rect x="449.155" y="384.99" width="42.777" height="128.33" fill="#444444"/>
			<path d="M406.378,121.914C402.1,53.471,346.491,0,278.048,0c-36.36,0-70.581,14.972-94.109,40.638c-4.278,0-8.555,0-12.833,0     c-83.414,0-149.718,66.304-149.718,149.718s66.304,151.857,149.718,151.857c47.055,0,79.137-17.11,102.664-29.944     c23.527-12.833,38.499-21.388,62.026-12.833c14.972,4.278,25.666,19.249,27.805,38.499c0,2.139,0,4.278,0,4.278h42.777     c0,0,0-6.416,0-8.555c-4.278-36.36-25.666-64.165-57.749-74.859c-42.777-14.972-70.581,2.139-96.247,17.11     c-21.388,10.694-44.916,23.527-81.275,23.527c-57.749,0-106.942-49.193-106.942-109.081c0-53.471,40.638-98.386,94.109-104.803     c-6.416,12.833-8.555,21.388-8.555,42.777h42.777c0-21.388,6.416-36.36,17.11-51.332c17.11-21.388,40.638-34.221,68.443-34.221     c40.638,0,74.859,27.805,83.414,66.304c-6.416-2.139-12.833-2.139-19.249-2.139v42.777c12.833,0,23.527,2.139,36.36,6.416     c42.777,14.972,70.581,55.61,70.581,100.525v85.553h42.777V256.66C491.932,198.911,457.71,145.44,406.378,121.914     L406.378,121.914z" fill="#444444"/>
		</g>
	</g>
</g>
<g>
</g>
<g>
</g>
<g>
</g>
<g>
</g>
<g>
</g>
<g>
</g>
<g>
</g>
<g>
</g>
<g>
</g>
<g>
</g>
<g>
</g>
<g>
</g>
<g>
</g>
<g>
</g>
<g>
</g>
</svg>
