<svg xmlns="http://www.w3.org/2000/svg" xmlns:xlink="http://www.w3.org/1999/xlink" viewBox="0 0 48 48" version="1.1" width="48" height="48">
<g id="surface1">
<path style=" fill:#F57C00;" d="M 36.257813 28.835938 C 36.257813 28.835938 36.148438 28 35 28 C 34.785156 28 32.609375 28 31.28125 28 C 32.078125 30.671875 32.777344 33.136719 32.777344 33.277344 C 32.777344 35.664063 29.378906 36.671875 23.863281 36.671875 C 18.347656 36.671875 15.210938 35.730469 15.210938 33.347656 C 15.210938 33.179688 16.210938 30.652344 17.003906 28 C 15.410156 28 13.140625 28 12.9375 28 C 12.132813 28 12.003906 28.75 12.003906 28.75 L 8.160156 40.984375 L 8.816406 42 L 39.46875 42 L 39.84375 40.984375 Z "/>
<path style=" fill:#E0E0E0;" d="M 24 6 C 22.972656 6 22.136719 6.179688 22.136719 6.398438 C 21.644531 7.882813 14.015625 32.539063 14.015625 33.171875 C 14.015625 35.558594 18.484375 37 24 37 C 29.515625 37 33.984375 35.558594 33.984375 33.171875 C 33.984375 32.621094 26.371094 7.902344 25.863281 6.398438 C 25.863281 6.179688 25.03125 6 24 6 Z "/>
<path style=" fill:#FF9800;" d="M 33.195313 30.445313 C 32.03125 32.230469 28.339844 34 24.046875 34 C 19.707031 34 15.890625 32.304688 14.765625 30.488281 C 14.265625 31.972656 13.871094 33.136719 13.871094 33.769531 C 13.871094 36.15625 18.40625 38 24 38 C 29.597656 38 34.132813 36.15625 34.132813 33.769531 C 34.132813 33.222656 33.714844 31.953125 33.195313 30.445313 Z "/>
<path style=" fill:#FF9800;" d="M 31.386719 24.3125 L 29.3125 17.519531 C 29.3125 17.519531 27.457031 19 24.003906 19 C 20.550781 19 18.6875 17.519531 18.6875 17.519531 L 16.605469 24.324219 C 16.605469 24.324219 18.671875 27 24.003906 27 C 29.375 27 31.386719 24.3125 31.386719 24.3125 Z "/>
<path style=" fill:#FF9800;" d="M 27.242188 10.808594 L 25.863281 6.398438 C 25.863281 6.398438 25.78125 6 24 6 C 22.15625 6 22.136719 6.398438 22.136719 6.398438 L 20.761719 10.804688 C 20.761719 10.804688 21.644531 12 24 12 C 26.355469 12 27.242188 10.808594 27.242188 10.808594 Z "/>
</g>
</svg>