<?xml version="1.0" encoding="iso-8859-1"?>
<!-- Generator: Adobe Illustrator 19.0.0, SVG Export Plug-In . SVG Version: 6.00 Build 0)  -->
<svg version="1.1" id="Capa_1" xmlns="http://www.w3.org/2000/svg" xmlns:xlink="http://www.w3.org/1999/xlink" x="0px" y="0px"
	 viewBox="0 0 480 480" style="enable-background:new 0 0 480 480;" xml:space="preserve">
<g>
	<g>
		<path d="M0,32v416h480V32H0z M448,416H32V278.72L158.88,368l176-96L448,356.8V416z M448,321.6l-110.56-83.04l-176,96L32,244.48V64
			h416V321.6z"/>
	</g>
</g>
<g>
	<g>
		<path d="M136,128c-22.091,0-40,17.909-40,40s17.909,40,40,40s40-17.909,40-40S158.091,128,136,128z M136,184
			c-8.837,0-16-7.163-16-16s7.163-16,16-16s16,7.163,16,16S144.837,184,136,184z"/>
	</g>
</g>
<g>
</g>
<g>
</g>
<g>
</g>
<g>
</g>
<g>
</g>
<g>
</g>
<g>
</g>
<g>
</g>
<g>
</g>
<g>
</g>
<g>
</g>
<g>
</g>
<g>
</g>
<g>
</g>
<g>
</g>
</svg>
