<?xml version="1.0" encoding="iso-8859-1"?>
<!-- Generator: Adobe Illustrator 18.1.1, SVG Export Plug-In . SVG Version: 6.00 Build 0)  -->
<svg version="1.1" id="Capa_1" xmlns="http://www.w3.org/2000/svg" xmlns:xlink="http://www.w3.org/1999/xlink" x="0px" y="0px"
	 viewBox="0 0 16 16" style="enable-background:new 0 0 16 16;" xml:space="preserve">
<g>
	<path style="fill:#030104;" d="M8,0C3.581,0,0,3.582,0,8s3.581,8,8,8s8-3.582,8-8S12.419,0,8,0z M11.707,10.293
		c0.391,0.391,0.391,1.023,0,1.414C11.512,11.902,11.256,12,11,12s-0.512-0.098-0.707-0.293L8,9.414l-2.293,2.293
		C5.512,11.902,5.256,12,5,12s-0.512-0.098-0.707-0.293c-0.391-0.391-0.391-1.023,0-1.414L6.586,8L4.293,5.707
		c-0.391-0.391-0.391-1.023,0-1.414s1.023-0.391,1.414,0L8,6.586l2.293-2.293c0.391-0.391,1.023-0.391,1.414,0s0.391,1.023,0,1.414
		L9.414,8L11.707,10.293z"/>
</g>
<g>
</g>
<g>
</g>
<g>
</g>
<g>
</g>
<g>
</g>
<g>
</g>
<g>
</g>
<g>
</g>
<g>
</g>
<g>
</g>
<g>
</g>
<g>
</g>
<g>
</g>
<g>
</g>
<g>
</g>
</svg>
