<?xml version="1.0" encoding="iso-8859-1"?>
<!-- Generator: Adobe Illustrator 18.0.0, SVG Export Plug-In . SVG Version: 6.00 Build 0)  -->
<!DOCTYPE svg PUBLIC "-//W3C//DTD SVG 1.1//EN" "http://www.w3.org/Graphics/SVG/1.1/DTD/svg11.dtd">
<svg version="1.1" id="Capa_1" xmlns="http://www.w3.org/2000/svg" xmlns:xlink="http://www.w3.org/1999/xlink" x="0px" y="0px"
	 viewBox="0 0 222.365 222.365" style="enable-background:new 0 0 222.365 222.365;" xml:space="preserve">
<g>
	<path d="M220.168,75.487c-60.096-60.094-157.877-60.094-217.972,0c-2.929,2.93-2.929,7.678,0,10.607
		c2.929,2.928,7.678,2.928,10.606,0c54.246-54.246,142.512-54.246,196.759,0c1.464,1.464,3.384,2.196,5.303,2.196
		c1.919,0,3.839-0.732,5.303-2.196C223.098,83.165,223.098,78.417,220.168,75.487z"/>
	<path d="M28.118,101.409c-2.929,2.93-2.929,7.678,0,10.607c1.464,1.464,3.384,2.196,5.303,2.196c1.919,0,3.839-0.732,5.303-2.196
		c39.953-39.955,104.962-39.955,144.917-0.002c2.929,2.928,7.678,2.929,10.606-0.001c2.929-2.929,2.929-7.678,0-10.607
		C148.445,55.606,73.919,55.608,28.118,101.409z"/>
	<path d="M54.037,127.329c-2.929,2.93-2.929,7.678,0,10.606c1.464,1.465,3.384,2.197,5.303,2.197c1.919,0,3.839-0.732,5.303-2.196
		c25.662-25.661,67.416-25.661,93.077,0c2.929,2.928,7.678,2.928,10.606,0c2.929-2.93,2.929-7.678,0-10.607
		C136.817,95.82,85.546,95.821,54.037,127.329z"/>
	<path d="M111.183,140.296c-14.241,0-25.826,11.586-25.826,25.826c0,14.24,11.586,25.826,25.826,25.826
		c14.241,0,25.826-11.586,25.826-25.826C137.009,151.882,125.423,140.296,111.183,140.296z M111.183,176.949
		c-5.97,0-10.826-4.856-10.826-10.826c0-5.97,4.856-10.826,10.826-10.826c5.97,0,10.826,4.856,10.826,10.826
		C122.009,172.092,117.152,176.949,111.183,176.949z"/>
</g>
<g>
</g>
<g>
</g>
<g>
</g>
<g>
</g>
<g>
</g>
<g>
</g>
<g>
</g>
<g>
</g>
<g>
</g>
<g>
</g>
<g>
</g>
<g>
</g>
<g>
</g>
<g>
</g>
<g>
</g>
</svg>
