<?xml version="1.0" encoding="utf-8"?>
<!-- Generator: Adobe Illustrator 16.0.3, SVG Export Plug-In . SVG Version: 6.00 Build 0)  -->
<!DOCTYPE svg PUBLIC "-//W3C//DTD SVG 1.1//EN" "http://www.w3.org/Graphics/SVG/1.1/DTD/svg11.dtd">
<svg version="1.1" id="Ebene_1" xmlns="http://www.w3.org/2000/svg" xmlns:xlink="http://www.w3.org/1999/xlink" x="0px" y="0px"
	 width="250px" height="300px" viewBox="0 0 250 300" style="enable-background:new 0 0 250 300;" xml:space="preserve">
<style type="text/css">
<![CDATA[
	.st0{fill:none;stroke:#FCFDFD;stroke-width:3.7327;}
	.st1{fill:none;stroke:#7F8084;stroke-width:4.6171;}
	.st2{fill:none;stroke:#FCFDFD;stroke-width:5.2426;stroke-miterlimit:10;}
	.st3{fill:none;stroke:#FCFDFD;stroke-width:4.3333;stroke-linecap:round;}
	.st4{fill:none;stroke:#A6A8AB;stroke-width:3.9769;}
	.st5{fill:#00378A;stroke:#1A171B;stroke-width:1.6209;}
	.st6{fill:#97A225;}
	.st7{fill:none;stroke:#FCFDFD;stroke-width:1.8485;}
	.st8{fill:#FCFDFD;}
	.st9{fill:#2F4097;stroke:#211F20;stroke-width:1.6075;}
	.st10{fill:#FFFFFF;}
	.st11{display:inline;fill:#003661;}
	.st12{fill:none;stroke:#FCFDFD;stroke-width:6.1561;stroke-miterlimit:10;}
	.st13{fill:#003661;}
	.st14{display:inline;fill:#A2A600;}
	.st15{fill:none;stroke:#7F8084;stroke-width:3.8055;}
	.st16{display:none;}
]]>
</style>
<path class="st13" d="M242.1,0H7.9C3.5,0,0,4,0,8.9v282.2c0,4.9,3.5,8.9,7.9,8.9h234.2c4.4,0,7.9-4,7.9-8.9V8.9
	C250,4,246.5,0,242.1,0z"/>
<path class="st10" d="M241.8,4.4c1.7,0,3,1.8,3,4v40.3H4.6V8.4c0-2.2,1.4-4,3-4"/>
<g>
	<path class="st5" d="M223.3,66.7C223.2,66.7,223.2,66.7,223.3,66.7L223.3,66.7L223.3,66.7z"/>
</g>
<g class="st16">
	<path class="st14" d="M67.5,34.9h6c-0.6,2.4-1.8,4.2-3.7,5.5c-1.8,1.3-4.1,2-6.7,2c-3.2,0-5.8-1.1-7.7-3.3s-2.8-5.1-2.8-8.8
		s0.9-6.6,2.8-8.7c1.9-2.1,4.4-3.2,7.7-3.2c3.4,0,6.1,1,7.9,3.1c1.9,2.1,2.8,5,2.8,8.9c0,0.4,0,0.7,0,1c0,0.3,0,0.4-0.1,0.6H58.8
		c0.1,1.8,0.5,3.1,1.3,4c0.8,0.9,1.9,1.3,3.3,1.3c1,0,1.9-0.2,2.5-0.6C66.6,36.4,67.1,35.8,67.5,34.9z M58.8,28.2h8.8
		c-0.1-1.5-0.5-2.7-1.2-3.4c-0.7-0.8-1.8-1.2-3.2-1.2c-1.3,0-2.3,0.4-3.1,1.2C59.3,25.5,58.9,26.7,58.8,28.2z"/>
	<path class="st14" d="M77.7,41.7V19.4h5.7v2.5c0.8-1,1.8-1.8,2.8-2.3s2.2-0.8,3.4-0.8c1.4,0,2.6,0.3,3.6,0.8s1.9,1.4,2.6,2.5
		c0.8-1.1,1.7-1.9,2.8-2.5c1.1-0.5,2.3-0.8,3.6-0.8c2.2,0,4,0.7,5.3,2s2,3.1,2,5.4v15.6h-5.9V27.3c0-1.1-0.3-1.9-0.9-2.5
		c-0.6-0.6-1.4-0.9-2.4-0.9c-1.2,0-2.1,0.4-2.8,1.1c-0.7,0.8-1,1.8-1,3.1v13.6h-5.8V27.4c0-1.1-0.3-1.9-0.9-2.6
		c-0.6-0.6-1.4-0.9-2.4-0.9c-1.2,0-2.1,0.4-2.8,1.2c-0.7,0.8-1,1.8-1,3.1v13.5H77.7z"/>
	<path class="st14" d="M114.8,11.4h5.8v10.7c0.7-1.2,1.7-2,2.8-2.6c1.1-0.6,2.4-0.9,3.8-0.9c2.7,0,4.9,1.1,6.6,3.3
		c1.7,2.2,2.6,5.1,2.6,8.7c0,3.5-0.9,6.4-2.6,8.6c-1.7,2.2-4,3.3-6.7,3.3c-1.4,0-2.7-0.3-3.8-0.9c-1.1-0.6-2-1.6-2.9-2.9v3h-5.7
		L114.8,11.4L114.8,11.4z M130.5,30.4c0-2.1-0.4-3.7-1.3-4.8c-0.9-1.1-2.1-1.8-3.6-1.8c-1.6,0-2.8,0.6-3.7,1.7
		c-0.9,1.1-1.3,2.8-1.3,4.9c0,2.3,0.4,4,1.2,5.2c0.8,1.2,2,1.8,3.6,1.8s2.9-0.6,3.7-1.8C129.9,34.4,130.5,32.7,130.5,30.4z"/>
	<path class="st11" d="M139.7,26.6c0-4.9,1.3-8.8,4-11.7c2.7-2.9,6.3-4.3,10.8-4.3s8.1,1.4,10.8,4.3c2.7,2.9,4,6.8,4,11.6
		c0,4.9-1.3,8.8-4,11.6c-2.7,2.9-6.3,4.3-10.8,4.3s-8.1-1.4-10.8-4.3C141,35.4,139.7,31.5,139.7,26.6z M146.1,26.6
		c0,3.3,0.7,5.9,2.2,7.8c1.5,1.9,3.6,2.8,6.2,2.8c2.7,0,4.8-0.9,6.3-2.8c1.5-1.9,2.2-4.4,2.2-7.8c0-3.3-0.7-5.9-2.2-7.8
		c-1.5-1.8-3.6-2.8-6.3-2.8s-4.7,0.9-6.2,2.8S146.1,23.3,146.1,26.6z"/>
	<path class="st11" d="M172.9,32.4h6.2c0.2,1.7,0.9,2.9,2,3.7c1.1,0.8,2.8,1.2,4.9,1.2c1.8,0,3.2-0.3,4.1-1c0.9-0.6,1.4-1.6,1.4-2.9
		c0-1.8-2.6-3.4-7.9-4.6c-0.1,0-0.1,0-0.2,0c-0.1,0-0.3-0.1-0.6-0.1c-2.8-0.6-4.8-1.3-6-2.1c-1.1-0.7-1.9-1.6-2.4-2.8
		c-0.6-1.2-0.8-2.5-0.8-4.1c0-2.9,1-5.2,3-6.8c2-1.6,4.9-2.4,8.7-2.4c3.5,0,6.3,0.8,8.3,2.5s3,4,3.2,7.1h-6
		c-0.1-1.5-0.7-2.6-1.7-3.4c-1-0.8-2.5-1.2-4.3-1.2c-1.6,0-2.9,0.3-3.8,1c-0.9,0.6-1.3,1.5-1.3,2.7c0,1.6,1.7,2.8,5.2,3.6
		c0.9,0.2,1.7,0.4,2.2,0.5c2.2,0.6,3.8,1,4.7,1.3c0.9,0.3,1.7,0.7,2.4,1c1.2,0.7,2.2,1.6,2.8,2.7s0.9,2.5,0.9,4.1
		c0,3.2-1.1,5.6-3.2,7.3c-2.1,1.7-5.1,2.6-9,2.6c-3.8,0-6.8-0.9-9-2.7C174.2,38.1,173,35.6,172.9,32.4z"/>
</g>
<g>
	<path class="st9" d="M222.8,68.2C222.7,68.2,222.7,68.2,222.8,68.2L222.8,68.2C222.8,68.2,222.8,68.2,222.8,68.2z"/>
</g>
<g>
	<path class="st6" d="M76.7,39.5V14.3h7.7l5,19.2l4.9-19.2h7.7v25.2h-4.9V19.2l-5.1,20.3h-5.3l-5.2-20.3v20.3H76.7z"/>
	<path class="st6" d="M125.1,38.4c-0.9,0.6-1.8,1-3,1.3s-2.4,0.4-3.7,0.4c-3.8,0-6.7-1.2-9-3.6c-2.2-2.4-3.3-5.6-3.3-9.7
		c0-4.1,1.1-7.3,3.3-9.7c2.2-2.4,5.2-3.6,9-3.6s6.8,1.2,9,3.6c2.2,2.4,3.3,5.6,3.3,9.7c0,1.8-0.2,3.4-0.7,4.9
		c-0.5,1.5-1.1,2.8-2,3.9l2.7,2.6l-2.8,2.9L125.1,38.4z M121.5,35l-2.7-2.6l2.8-2.9l2.7,2.7c0.4-0.7,0.6-1.5,0.8-2.3
		c0.2-0.9,0.3-1.8,0.3-2.9c0-2.8-0.6-4.9-1.9-6.5c-1.2-1.5-3-2.3-5.2-2.3c-2.2,0-3.9,0.8-5.2,2.3c-1.2,1.5-1.8,3.7-1.8,6.5
		c0,2.8,0.6,4.9,1.8,6.5s3,2.3,5.2,2.3c0.6,0,1.1-0.1,1.6-0.2C120.6,35.4,121,35.2,121.5,35z"/>
	<path class="st13" d="M140.1,39.5V18.8h-7.5v-4.5h20.1v4.5h-7.4v20.7H140.1z"/>
	<path class="st13" d="M161.7,39.5V18.8h-7.5v-4.5h20.1v4.5h-7.4v20.7H161.7z"/>
</g>
<g>
	<path class="st0" d="M171.9,181.4"/>
	<path class="st7" d="M90.3,138.5"/>
	<path class="st7" d="M88,136.4"/>
	<path class="st3" d="M196.7,220"/>
	<path class="st1" d="M178.3,243.6"/>
	<path class="st1" d="M70.1,243.6"/>
	<path class="st15" d="M176.1,244.4"/>
	<path class="st4" d="M69,246"/>
	<path class="st8" d="M79.7,229.5c0,4-3.3,7.3-7.3,7.3H30.3c-4,0-7.3-3.3-7.3-7.3v-21.2c0-4,3.3-7.3,7.3-7.3h42.1
		c4,0,7.3,3.3,7.3,7.3V229.5z"/>
	<path class="st8" d="M153.6,229.5c0,4-3.3,7.3-7.3,7.3h-42.1c-4,0-7.3-3.3-7.3-7.3v-21.2c0-4,3.3-7.3,7.3-7.3h42.1
		c4,0,7.3,3.3,7.3,7.3V229.5z"/>
	<path class="st8" d="M227,229.5c0,4-3.3,7.3-7.3,7.3h-42.1c-4,0-7.3-3.3-7.3-7.3v-21.2c0-4,3.3-7.3,7.3-7.3h42.1
		c4,0,7.3,3.3,7.3,7.3V229.5z"/>
	<line class="st12" x1="125.3" y1="150.5" x2="125.3" y2="203.6"/>
	<polyline class="st2" points="199.6,211 199.6,129.8 50.7,129.8 50.7,211 	"/>
	<circle class="st8" cx="125.2" cy="129.8" r="28.6"/>
</g>
</svg>
