<svg id="Layer_3" enable-background="new 0 0 64 64" height="512" viewBox="0 0 64 64" width="512" xmlns="http://www.w3.org/2000/svg"><g><path d="m7 2h55v52l-2 2v6h-53l-5-5v-50z" fill="#59ac98"/><path d="m2 7v39.988c4.931 2.558 10.542 4.012 16.5 4.012 19.606 0 35.5-15.67 35.5-35 0-4.979-1.061-9.712-2.962-14h-44.038z" fill="#70ce90"/><g fill="#4d5d7a"><path d="m2 28h14v12h-14z"/><path d="m52 21h6v14h-6z"/><path d="m52 39h6v14h-6z"/><path d="m36 34h12v8h-12z"/></g><g><path d="m8 37c-1.654 0-3-1.346-3-3s1.346-3 3-3 3 1.346 3 3-1.346 3-3 3zm0-4c-.551 0-1 .449-1 1s.449 1 1 1 1-.449 1-1-.449-1-1-1z" fill="#fff"/></g><g><path d="m16 37c-1.654 0-3-1.346-3-3s1.346-3 3-3 3 1.346 3 3-1.346 3-3 3zm0-4c-.551 0-1 .449-1 1s.449 1 1 1 1-.449 1-1-.449-1-1-1z" fill="#fff"/></g><g><path d="m12 43c-1.654 0-3-1.346-3-3s1.346-3 3-3 3 1.346 3 3-1.346 3-3 3zm0-4c-.551 0-1 .449-1 1s.449 1 1 1 1-.449 1-1-.449-1-1-1z" fill="#fff"/></g><g><path d="m57 5h2v2h-2z" fill="#fff"/></g><g><path d="m57 9h2v4h-2z" fill="#fff"/></g><g><path d="m57 15h2v2h-2z" fill="#fff"/></g><g><path d="m53 5h2v2h-2z" fill="#fff"/></g><g><path d="m53 9h2v4h-2z" fill="#fff"/></g><g><path d="m53 15h2v2h-2z" fill="#fff"/></g><g><path d="m49 5h2v2h-2z" fill="#fff"/></g><g><path d="m49 9h2v4h-2z" fill="#fff"/></g><g><path d="m49 15h2v2h-2z" fill="#fff"/></g><g><path d="m45 5h2v2h-2z" fill="#fff"/></g><g><path d="m45 9h2v4h-2z" fill="#fff"/></g><g><path d="m45 15h2v2h-2z" fill="#fff"/></g><g><path d="m41 5h2v2h-2z" fill="#fff"/></g><g><path d="m41 9h2v4h-2z" fill="#fff"/></g><g><path d="m41 15h2v2h-2z" fill="#fff"/></g><g><path d="m37 5h2v2h-2z" fill="#fff"/></g><g><path d="m37 9h2v4h-2z" fill="#fff"/></g><g><path d="m37 15h2v2h-2z" fill="#fff"/></g><g><path d="m33 5h2v2h-2z" fill="#fff"/></g><g><path d="m33 9h2v4h-2z" fill="#fff"/></g><g><path d="m33 15h2v2h-2z" fill="#fff"/></g><g><path d="m29 5h2v2h-2z" fill="#fff"/></g><g><path d="m29 9h2v4h-2z" fill="#fff"/></g><g><path d="m29 15h2v2h-2z" fill="#fff"/></g><g><path d="m25 5h2v2h-2z" fill="#fff"/></g><g><path d="m25 9h2v4h-2z" fill="#fff"/></g><g><path d="m25 15h2v2h-2z" fill="#fff"/></g><g><path d="m21 5h2v2h-2z" fill="#fff"/></g><g><path d="m21 9h2v4h-2z" fill="#fff"/></g><g><path d="m21 15h2v2h-2z" fill="#fff"/></g><g><path d="m17 5h2v2h-2z" fill="#fff"/></g><g><path d="m17 9h2v4h-2z" fill="#fff"/></g><g><path d="m17 15h2v2h-2z" fill="#fff"/></g><g><path d="m13 5h2v2h-2z" fill="#fff"/></g><g><path d="m13 9h2v4h-2z" fill="#fff"/></g><g><path d="m13 15h2v2h-2z" fill="#fff"/></g><g><path d="m29 47h2v2h-2z" fill="#fff"/></g><g><path d="m29 51h2v4h-2z" fill="#fff"/></g><g><path d="m29 57h2v2h-2z" fill="#fff"/></g><g><path d="m25 47h2v2h-2z" fill="#fff"/></g><g><path d="m25 51h2v4h-2z" fill="#fff"/></g><g><path d="m25 57h2v2h-2z" fill="#fff"/></g><g><path d="m21 47h2v2h-2z" fill="#fff"/></g><g><path d="m21 51h2v4h-2z" fill="#fff"/></g><g><path d="m21 57h2v2h-2z" fill="#fff"/></g><g><path d="m17 47h2v2h-2z" fill="#fff"/></g><g><path d="m17 51h2v4h-2z" fill="#fff"/></g><g><path d="m17 57h2v2h-2z" fill="#fff"/></g><g><path d="m13 47h2v2h-2z" fill="#fff"/></g><g><path d="m13 51h2v4h-2z" fill="#fff"/></g><g><path d="m13 57h2v2h-2z" fill="#fff"/></g><g><path d="m45 29h2v5h-2z" fill="#fff"/></g><g><path d="m41 29h2v5h-2z" fill="#fff"/></g><g><path d="m37 29h2v5h-2z" fill="#fff"/></g><g><path d="m45 42h2v5h-2z" fill="#fff"/></g><g><path d="m41 53h-2v-4c0-.265.105-.52.293-.707l1.707-1.707v-4.586h2v5c0 .265-.105.52-.293.707l-1.707 1.707z" fill="#fff"/></g><g><path d="m37 42h2v5h-2z" fill="#fff"/></g><g><path d="m54 23h2v2h-2z" fill="#fff"/></g><g><path d="m54 31h2v2h-2z" fill="#fff"/></g><g><path d="m54 41h2v2h-2z" fill="#fff"/></g><g><path d="m54 49h2v2h-2z" fill="#fff"/></g><g><path d="m22 19h2v2h-2z" fill="#fff"/></g><g><path d="m31 19h2v2h-2z" fill="#fff"/></g><g><path d="m22 29h2v2h-2z" fill="#fff"/></g><g><path d="m31 29h2v2h-2z" fill="#fff"/></g><g><path d="m25 19h5v2h-5z" fill="#fff"/></g><g><path d="m31 22h2v6h-2z" fill="#fff"/></g><g><path d="m25 29h5v2h-5z" fill="#fff"/></g><g><path d="m22 22h2v6h-2z" fill="#fff"/></g><g><path d="m38 25c-1.654 0-3-1.346-3-3s1.346-3 3-3 3 1.346 3 3-1.346 3-3 3zm0-4c-.551 0-1 .449-1 1s.449 1 1 1 1-.449 1-1-.449-1-1-1z" fill="#fff"/></g><g><path d="m46 25c-1.654 0-3-1.346-3-3s1.346-3 3-3 3 1.346 3 3-1.346 3-3 3zm0-4c-.551 0-1 .449-1 1s.449 1 1 1 1-.449 1-1-.449-1-1-1z" fill="#fff"/></g><g><path d="m28 45h-4v-2h3.586l1.707-1.707c.187-.188.442-.293.707-.293h6v2h-5.586l-1.707 1.707c-.187.188-.442.293-.707.293z" fill="#fff"/></g><g><path d="m26 41h-4v-2h3.586l1.707-1.707c.187-.188.442-.293.707-.293h8v2h-7.586l-1.707 1.707c-.187.188-.442.293-.707.293z" fill="#fff"/></g><g><path d="m28 33h8v2h-8z" fill="#fff"/></g><g><path d="m9 53h-2v-4.586l-1.707-1.707c-.188-.187-.293-.442-.293-.707v-6h2v5.586l1.707 1.707c.188.187.293.442.293.707z" fill="#fff"/></g><g><path d="m7 28h-2v-4c0-.265.105-.52.293-.707l1.707-1.707v-4.586h2v5c0 .265-.105.52-.293.707l-1.707 1.707z" fill="#fff"/></g><g><path d="m11 22h2v6h-2z" fill="#fff"/></g><g><path d="m17 28h-2v-3c0-.265.105-.52.293-.707l1.707-1.707v-3.586h2v4c0 .265-.105.52-.293.707l-1.707 1.707z" fill="#fff"/></g></g></svg>