<?xml version="1.0"?>
<svg xmlns="http://www.w3.org/2000/svg" xmlns:xlink="http://www.w3.org/1999/xlink" version="1.1" id="Capa_1" x="0px" y="0px" viewBox="0 0 54 54" style="enable-background:new 0 0 54 54;" xml:space="preserve" width="512px" height="512px"><g><g>
	<g>
		<path style="fill:#0096E6;" d="M49.217,53H4.783C2.694,53,1,51.306,1,49.217V4.783C1,2.694,2.694,1,4.783,1h44.435    C51.306,1,53,2.694,53,4.783v44.435C53,51.306,51.306,53,49.217,53z" data-original="#0096E6"/>
		<path style="fill:#0096E6;" d="M49.217,54H4.783C2.146,54,0,51.854,0,49.217V4.783C0,2.146,2.146,0,4.783,0h44.435    C51.854,0,54,2.146,54,4.783v44.434C54,51.854,51.854,54,49.217,54z M4.783,2C3.249,2,2,3.249,2,4.783v44.434    C2,50.751,3.249,52,4.783,52h44.435C50.751,52,52,50.751,52,49.217V4.783C52,3.249,50.751,2,49.217,2H4.783z" data-original="#0096E6"/>
	</g>
	<g>
		<path style="fill:#FFFFFF" d="M39.544,27.841L18.456,40.016C17.809,40.389,17,39.922,17,39.175V14.825    c0-0.747,0.809-1.215,1.456-0.841l21.087,12.175C40.191,26.533,40.191,27.467,39.544,27.841z" data-original="#FFFFFF" class="active-path"/>
		<path style="fill:#FFFFFF" d="M17.973,41.147c-1.088,0-1.973-0.885-1.973-1.973v-24.35c0-1.088,0.885-1.973,1.973-1.973    c0.343,0,0.683,0.092,0.984,0.266l21.087,12.175c0.617,0.356,0.986,0.995,0.986,1.707s-0.369,1.351-0.986,1.707L18.957,40.882    C18.656,41.056,18.315,41.147,17.973,41.147z M17.957,14.851L18,39.125l21.043-12.15L17.957,14.851z" data-original="#FFFFFF" class="active-path"/>
	</g>
</g></g> </svg>
