<svg height="496pt" viewBox="-1 0 496 496" width="496pt" xmlns="http://www.w3.org/2000/svg"><path d="m478.472656 496h-462.496094c-8.824218 0-15.976562-7.152344-15.976562-15.976562v-464.046876c0-8.824218 7.152344-15.976562 15.976562-15.976562h462.496094c8.824219 0 15.976563 7.152344 15.976563 15.976562v464.046876c-.007813 8.824218-7.160157 15.976562-15.976563 15.976562zm0 0" fill="#70a5f4"/><path d="m231.273438 408h15.949218v40h-15.949218zm0 0" fill="#4b81d1"/><path d="m326.96875 408h15.953125v40h-15.953125zm0 0" fill="#4b81d1"/><path d="m374.824219 408h15.953125v40h-15.953125zm0 0" fill="#4b81d1"/><path d="m279.121094 408h15.949218v40h-15.949218zm0 0" fill="#4b81d1"/><path d="m103.671875 48h15.953125v40h-15.953125zm0 0" fill="#4b81d1"/><path d="m199.375 48h15.953125v40h-15.953125zm0 0" fill="#4b81d1"/><path d="m247.222656 48h15.953125v40h-15.953125zm0 0" fill="#4b81d1"/><path d="m151.527344 48h15.953125v40h-15.953125zm0 0" fill="#4b81d1"/><path d="m390.769531 88h-15.953125v-24h-39.871094v-16h47.847657c4.40625 0 7.976562 3.585938 7.976562 8zm0 0" fill="#4b81d1"/><path d="m336.945312 56c0-9.941406-8.035156-18-17.945312-18s-17.945312 8.058594-17.945312 18 8.035156 18 17.945312 18 17.945312-8.058594 17.945312-18zm0 0" fill="#d64a49"/><path d="m159.496094 448h-47.847656c-4.410157 0-7.976563-3.585938-7.976563-8v-32h15.953125v24h39.871094zm0 0" fill="#4b81d1"/><path d="m194.054688 440c0-10.308594-8.328126-18.664062-18.605469-18.664062-10.277344 0-18.609375 8.355468-18.609375 18.664062s8.332031 18.664062 18.609375 18.664062c10.277343 0 18.605469-8.355468 18.605469-18.664062zm0 0" fill="#d64a49"/><path d="m31.902344 112h430.640625v112h-430.640625zm0 0" fill="#4b81d1"/><path d="m31.902344 272h430.640625v112h-430.640625zm0 0" fill="#4b81d1"/><path d="m406.71875 416h-191.398438l-15.953124-16h-47.847657l-15.953125 16h-47.847656c-4.40625 0-7.976562-3.585938-7.976562-8v-320c0-4.414062 3.570312-8 7.976562-8h191.394531l15.949219 16h47.847656l15.960938-16h47.847656c4.410156 0 7.976562 3.585938 7.976562 8v320c0 4.414062-3.566406 8-7.976562 8zm0 0" fill="#fcbe56"/><path d="m103.671875 104h15.953125v16h-15.953125zm0 0" fill="#f2f2f2"/><path d="m374.824219 104h15.953125v16h-15.953125zm0 0" fill="#f2f2f2"/><path d="m103.671875 376h15.953125v16h-15.953125zm0 0" fill="#f2f2f2"/><path d="m374.824219 376h15.953125v16h-15.953125zm0 0" fill="#f2f2f2"/><g fill="#d6a249"><path d="m119.625 152h23.925781v16h-23.925781zm0 0"/><path d="m119.625 184h23.925781v16h-23.925781zm0 0"/><path d="m119.625 264h23.925781v16h-23.925781zm0 0"/><path d="m119.625 296h23.925781v16h-23.925781zm0 0"/><path d="m119.625 328h23.925781v16h-23.925781zm0 0"/><path d="m350.894531 328h23.929688v16h-23.929688zm0 0"/><path d="m350.894531 296h23.929688v16h-23.929688zm0 0"/><path d="m350.894531 216h23.929688v16h-23.929688zm0 0"/><path d="m350.894531 184h23.929688v16h-23.929688zm0 0"/><path d="m350.894531 152h23.929688v16h-23.929688zm0 0"/></g><path d="m462.542969 232h-23.925781v-16h15.949218v-96h-15.949218v-16h23.925781c4.410156 0 7.976562 3.585938 7.976562 8v112c0 4.414062-3.566406 8-7.976562 8zm0 0" fill="#f2f2f2"/><path d="m462.542969 392h-23.925781v-16h15.949218v-96h-15.949218v-16h23.925781c4.410156 0 7.976562 3.585938 7.976562 8v112c0 4.414062-3.566406 8-7.976562 8zm0 0" fill="#f2f2f2"/><path d="m55.824219 232h-23.921875c-4.40625 0-7.972656-3.585938-7.972656-8v-112c0-4.414062 3.566406-8 7.972656-8h23.929687v16h-15.960937v96h15.953125zm0 0" fill="#f2f2f2"/><path d="m55.824219 392h-23.921875c-4.40625 0-7.972656-3.585938-7.972656-8v-112c0-4.414062 3.566406-8 7.972656-8h23.929687v16h-15.960937v96h15.953125zm0 0" fill="#f2f2f2"/><path d="m356.214844 349.335938v-202.671876c0-4.417968-3.566406-8-7.976563-8h-202.03125c-4.40625 0-7.976562 3.582032-7.976562 8v202.664063c0 4.414063 3.570312 8 7.976562 8h202.03125c4.402344.007813 7.976563-3.574219 7.976563-7.992187zm0 0" fill="#d64a49"/><path d="m167.472656 264h15.953125v16h-15.953125zm0 0" fill="#b33e3d"/><path d="m199.375 264h15.953125v16h-15.953125zm0 0" fill="#f2f2f2"/><path d="m231.273438 264h15.949218v16h-15.949218zm0 0" fill="#b33e3d"/><path d="m279.121094 264h15.949218v16h-15.949218zm0 0" fill="#f2f2f2"/><path d="m311.023438 264h15.953124v16h-15.953124zm0 0" fill="#b33e3d"/><path d="m183.425781 232h15.949219v16h-15.949219zm0 0" fill="#b33e3d"/><path d="m215.320312 232h15.953126v16h-15.953126zm0 0" fill="#b33e3d"/><path d="m263.175781 232h15.953125v16h-15.953125zm0 0" fill="#b33e3d"/><path d="m295.070312 232h15.953126v16h-15.953126zm0 0" fill="#b33e3d"/><path d="m191.398438 296h15.953124v32h-15.953124zm0 0" fill="#b33e3d"/><path d="m223.296875 296h15.949219v32h-15.949219zm0 0" fill="#f2f2f2"/><path d="m255.199219 296h15.953125v32h-15.953125zm0 0" fill="#f2f2f2"/><path d="m287.097656 296h15.949219v32h-15.949219zm0 0" fill="#b33e3d"/><path d="m167.472656 168h15.953125v32h-15.953125zm0 0" fill="#f2f2f2"/><path d="m199.375 168h15.953125v32h-15.953125zm0 0" fill="#b33e3d"/><path d="m279.121094 168h15.949218v32h-15.949218zm0 0" fill="#b33e3d"/><path d="m311.023438 168h15.953124v32h-15.953124zm0 0" fill="#f2f2f2"/><path d="m231.273438 200h31.894531v16h-31.894531zm0 0" fill="#f2f2f2"/></svg>