<?xml version="1.0" encoding="UTF-8" standalone="no"?>
<svg
   xmlns:dc="http://purl.org/dc/elements/1.1/"
   xmlns:cc="http://creativecommons.org/ns#"
   xmlns:rdf="http://www.w3.org/1999/02/22-rdf-syntax-ns#"
   xmlns:svg="http://www.w3.org/2000/svg"
   xmlns="http://www.w3.org/2000/svg"
   xmlns:sodipodi="http://sodipodi.sourceforge.net/DTD/sodipodi-0.dtd"
   xmlns:inkscape="http://www.inkscape.org/namespaces/inkscape"
   version="1.1"
   viewBox="0 0 298 298"
   enable-background="new 0 0 298 298"
   id="svg4644"
   sodipodi:docname="relay_closed.svg"
   inkscape:version="0.92.2 (5c3e80d, 2017-08-06)">
  <metadata
     id="metadata4650">
    <rdf:RDF>
      <cc:Work
         rdf:about="">
        <dc:format>image/svg+xml</dc:format>
        <dc:type
           rdf:resource="http://purl.org/dc/dcmitype/StillImage" />
        <dc:title></dc:title>
      </cc:Work>
    </rdf:RDF>
  </metadata>
  <defs
     id="defs4648" />
  <sodipodi:namedview
     pagecolor="#ffffff"
     bordercolor="#666666"
     borderopacity="1"
     objecttolerance="10"
     gridtolerance="10"
     guidetolerance="10"
     inkscape:pageopacity="0"
     inkscape:pageshadow="2"
     inkscape:window-width="1963"
     inkscape:window-height="1178"
     id="namedview4646"
     showgrid="false"
     inkscape:zoom="3.1107383"
     inkscape:cx="149"
     inkscape:cy="149"
     inkscape:window-x="1119"
     inkscape:window-y="128"
     inkscape:window-maximized="0"
     inkscape:current-layer="svg4644" />
  <path
     inkscape:connector-curvature="0"
     id="path4638"
     d="m 298,178.248 h -59.517 c -3.323,-9.592 -12.442,-16.5 -23.151,-16.5 -13.51,0 -24.5,10.99 -24.5,24.5 0,13.51 10.99,24.5 24.5,24.5 10.709,0 19.828,-6.908 23.151,-16.5 H 298 Z m -74.168,8 c 0,4.687 -3.814,8.5 -8.5,8.5 -4.687,0 -8.5,-3.813 -8.5,-8.5 0,-4.686 3.813,-8.5 8.5,-8.5 4.686,0 8.5,3.813 8.5,8.5 z" />
  <g
     id="g4668"
     transform="translate(0.3214671,37.248)">
    <path
       id="path4666"
       d="m 298,141 h -59.517 c -3.323,-9.592 -12.442,-16.5 -23.151,-16.5 -10.709,0 -19.828,6.908 -23.151,16.5 h -85.695 c -3.323,-9.592 -12.442,-16.5 -23.151,-16.5 -10.709,0 -19.828,6.908 -23.151,16.5 H 0 v 16 h 60.183 c 3.323,9.592 12.442,16.5 23.151,16.5 10.709,0 19.828,-6.908 23.151,-16.5 h 85.695 c 3.323,9.592 12.442,16.5 23.151,16.5 10.709,0 19.828,-6.908 23.151,-16.5 H 298 Z m -74.168,8 c 0,4.686 -3.814,8.5 -8.5,8.5 -4.687,0 -8.5,-3.814 -8.5,-8.5 0,-4.686 3.813,-8.5 8.5,-8.5 4.686,0 8.5,3.814 8.5,8.5 z m -131.998,0 c 0,4.686 -3.814,8.5 -8.5,8.5 -4.687,0 -8.5,-3.814 -8.5,-8.5 0,-4.686 3.813,-8.5 8.5,-8.5 4.686,0 8.5,3.814 8.5,8.5 z"
       inkscape:connector-curvature="0" />
  </g>
</svg>
