<svg id="Capa_1" enable-background="new 0 0 511.32 511.32" height="512" viewBox="0 0 511.32 511.32" width="512" xmlns="http://www.w3.org/2000/svg"><path d="m144.875 294.476c-3.839 0-7.678-1.465-10.606-4.394-29.1-29.099-45.125-67.788-45.125-108.941s16.026-79.843 45.125-108.941c5.858-5.858 15.355-5.858 21.213 0 5.858 5.857 5.858 15.355 0 21.213-23.433 23.434-36.338 54.589-36.338 87.729s12.905 64.295 36.338 87.729c5.858 5.857 5.858 15.355 0 21.213-2.929 2.927-6.768 4.392-10.607 4.392z"/><path d="m211.699 239.528c-3.839 0-7.678-1.465-10.606-4.394-14.422-14.422-22.365-33.597-22.365-53.993s7.943-39.571 22.365-53.993c5.858-5.858 15.354-5.858 21.213 0 5.857 5.857 5.857 15.355 0 21.213-8.756 8.756-13.578 20.397-13.578 32.78s4.822 24.024 13.578 32.78c5.858 5.857 5.858 15.355 0 21.213-2.93 2.929-6.768 4.394-10.607 4.394z"/><path d="m77.872 347.927c-3.839 0-7.678-1.465-10.606-4.394-43.377-43.376-67.266-101.048-67.266-162.392s23.889-119.016 67.266-162.393c5.857-5.857 15.355-5.857 21.213 0s5.858 15.355 0 21.213c-77.847 77.847-77.847 204.513 0 282.359 5.858 5.857 5.858 15.355 0 21.213-2.929 2.929-6.768 4.394-10.607 4.394z"/><path d="m365.829 261.719c-44.431 0-80.578-36.147-80.578-80.578s36.147-80.578 80.578-80.578 80.578 36.147 80.578 80.578-36.147 80.578-80.578 80.578zm0-131.156c-27.889 0-50.578 22.689-50.578 50.578s22.689 50.578 50.578 50.578 50.578-22.689 50.578-50.578-22.69-50.578-50.578-50.578z"/><path d="m496.319 496.964h-260.982c-4.408 0-8.593-1.938-11.443-5.302-2.85-3.362-4.077-7.809-3.354-12.156l30.676-184.656c6.037-36.336 37.152-62.709 73.986-62.709h81.252c36.834 0 67.95 26.373 73.986 62.709l30.676 184.656c.722 4.349-.504 8.794-3.354 12.156-2.85 3.364-7.035 5.302-11.443 5.302zm-243.284-30h225.587l-27.776-167.198c-3.622-21.802-22.291-37.625-44.392-37.625h-81.252c-22.101 0-40.77 15.823-44.392 37.625z"/></svg>