<?xml version="1.0" encoding="iso-8859-1"?>
<!-- Generator: Adobe Illustrator 19.0.0, SVG Export Plug-In . SVG Version: 6.00 Build 0)  -->
<svg version="1.1" id="Capa_1" xmlns="http://www.w3.org/2000/svg" xmlns:xlink="http://www.w3.org/1999/xlink" x="0px" y="0px"
	 viewBox="0 0 512.001 512.001" style="enable-background:new 0 0 512.001 512.001;" xml:space="preserve">
<g>
	<g>
		<path d="M439.13,383.692c17.741-14.819,29.053-37.092,29.053-61.963c0-44.514-36.214-80.729-80.727-80.729
			c-44.514,0-80.728,36.215-80.728,80.729c0,24.87,11.313,47.143,29.054,61.963c-42.957,19.667-72.874,63.058-72.874,113.309
			c0,8.284,6.716,15,15,15H497c8.284,0,15-6.716,15-15C512,446.749,482.085,403.36,439.13,383.692z M387.456,271
			c27.971,0,50.727,22.757,50.727,50.729c0,27.971-22.756,50.727-50.727,50.727c-27.971-0.001-50.728-22.756-50.728-50.727
			C336.727,293.757,359.484,271,387.456,271z M294.096,482c7.209-45.029,46.33-79.545,93.36-79.545
			c47.028,0,86.147,34.516,93.356,79.545H294.096z"/>
	</g>
</g>
<g>
	<g>
		<path d="M176.222,142.692c17.742-14.819,29.054-37.093,29.054-61.964C205.276,36.214,169.063,0,124.549,0
			C80.036,0,43.82,36.214,43.82,80.728c0,24.871,11.313,47.144,29.054,61.964C29.917,162.359,0,205.749,0,256
			c0,8.284,6.716,15,15,15h219.094c8.284,0,15-6.716,15-15C249.094,205.749,219.178,162.36,176.222,142.692z M124.549,30
			c27.971,0,50.727,22.756,50.727,50.728c0,27.972-22.756,50.728-50.727,50.728c-27.972-0.001-50.728-22.756-50.728-50.728
			C73.821,52.756,96.578,30,124.549,30z M31.19,241c7.209-45.029,46.33-79.545,93.36-79.545c47.028,0,86.147,34.516,93.356,79.545
			H31.19z"/>
	</g>
</g>
<g>
	<g>
		<path d="M507.606,76.694l-72.298-72.3c-5.857-5.859-15.355-5.858-21.213,0c-5.858,5.857-5.858,15.354,0,21.213l46.692,46.694
			H305.474c-8.284,0-15,6.716-15,15s6.716,15,15,15h155.314l-46.692,46.693c-5.858,5.857-5.858,15.355,0,21.213
			c2.929,2.929,6.768,4.394,10.606,4.394c3.839,0,7.678-1.465,10.606-4.394l72.299-72.3
			C513.464,92.05,513.464,82.552,507.606,76.694z"/>
	</g>
</g>
<g>
	<g>
		<path d="M206.527,409.7H51.214l46.694-46.694c5.858-5.857,5.858-15.355,0-21.213c-5.857-5.857-15.355-5.857-21.213,0l-72.3,72.3
			c-5.858,5.857-5.858,15.355,0,21.213l72.301,72.301c2.929,2.929,6.768,4.394,10.606,4.394c3.839,0,7.678-1.465,10.606-4.394
			c5.858-5.857,5.858-15.355,0-21.213L51.214,439.7h155.314c8.284,0,15-6.716,15-15C221.527,416.415,214.813,409.7,206.527,409.7z"
			/>
	</g>
</g>
<g>
</g>
<g>
</g>
<g>
</g>
<g>
</g>
<g>
</g>
<g>
</g>
<g>
</g>
<g>
</g>
<g>
</g>
<g>
</g>
<g>
</g>
<g>
</g>
<g>
</g>
<g>
</g>
<g>
</g>
</svg>
